<?xml version="1.0" standalone="no"?>
<!DOCTYPE svg PUBLIC "-//W3C//DTD SVG 20010904//EN"
 "http://www.w3.org/TR/2001/REC-SVG-20010904/DTD/svg10.dtd">
<svg version="1.0" xmlns="http://www.w3.org/2000/svg"
 width="512.000000pt" height="512.000000pt" viewBox="0 0 512.000000 512.000000"
 preserveAspectRatio="xMidYMid meet">
<metadata>
Created by potrace 1.14, written by Peter Selinger 2001-2017
</metadata>
<g transform="translate(0.000000,512.000000) scale(0.100000,-0.100000)"
fill="#000000" stroke="none">
<path d="M1059 5116 c-2 -2 -26 -6 -54 -9 -63 -7 -154 -25 -166 -33 -5 -3 -21
-8 -36 -10 -96 -18 -315 -132 -398 -209 -24 -22 -53 -47 -65 -55 -11 -8 -20
-17 -20 -21 0 -4 -15 -23 -33 -43 -38 -41 -120 -190 -110 -200 3 -3 1 -6 -5
-6 -7 0 -11 -3 -11 -7 1 -5 1 -10 -1 -13 -8 -24 -13 -88 -14 -217 0 -84 -5
-153 -9 -153 -5 0 -5 -5 -1 -11 9 -15 9 -224 0 -238 -4 -6 -4 -11 1 -11 4 0 8
-18 8 -40 0 -22 -4 -40 -8 -40 -5 0 -5 -5 -1 -12 10 -17 11 -68 0 -68 -5 0 -5
-6 0 -12 11 -16 11 -39 1 -55 -5 -7 -5 -13 0 -13 9 0 8 -214 -2 -229 -3 -6 -3
-11 2 -11 4 0 8 -18 8 -40 0 -22 -4 -40 -8 -40 -5 0 -5 -5 -1 -12 10 -16 11
-68 1 -68 -5 0 -5 -6 0 -12 10 -17 10 -40 -1 -55 -5 -7 -5 -13 0 -13 10 0 10
-213 -1 -229 -3 -6 -3 -11 2 -11 4 0 8 -18 8 -40 0 -22 -4 -40 -8 -40 -5 0 -5
-5 -1 -12 10 -17 11 -68 0 -68 -5 0 -5 -6 0 -12 11 -16 11 -39 1 -55 -5 -7 -5
-13 0 -13 9 0 8 -214 -2 -229 -3 -6 -3 -11 2 -11 4 0 8 -18 8 -40 0 -22 -4
-40 -8 -40 -5 0 -5 -5 -1 -12 10 -17 11 -68 0 -68 -5 0 -5 -6 0 -12 11 -16 11
-39 1 -55 -5 -7 -5 -13 0 -13 9 0 8 -214 -2 -229 -3 -6 -3 -11 2 -11 4 0 8
-18 8 -40 0 -22 -4 -40 -8 -40 -5 0 -5 -5 -1 -12 10 -17 11 -68 0 -68 -5 0 -5
-6 0 -12 11 -16 11 -39 1 -55 -5 -7 -5 -13 0 -13 9 0 8 -214 -2 -229 -3 -6 -3
-11 2 -11 4 0 8 -218 7 -483 0 -532 2 -564 58 -677 37 -77 37 -76 109 -149 73
-72 110 -101 132 -101 9 0 17 -4 17 -9 0 -4 30 -19 67 -32 l68 -24 1660 -3
c1631 -2 1661 -2 1730 18 39 11 81 25 95 32 94 46 202 146 255 235 21 35 45
59 79 78 55 31 180 148 169 158 -3 4 -1 7 5 7 7 0 12 7 12 15 0 8 4 15 8 15
19 0 70 142 79 215 3 28 6 73 7 102 1 49 3 53 49 88 49 37 121 105 111 105 -3
0 4 10 15 22 11 11 34 49 50 83 62 128 59 38 56 1753 -2 862 -4 1573 -6 1580
-1 6 -5 12 -8 12 -4 0 -8 12 -9 28 -3 34 -20 88 -40 127 -9 17 -16 33 -17 36
-1 14 -76 127 -99 148 -14 14 -26 31 -26 39 0 9 -3 13 -6 10 -3 -3 -17 6 -32
20 -30 28 -172 122 -185 122 -5 0 -23 7 -40 14 -18 8 -59 23 -92 33 -56 16
-163 18 -1706 20 -905 2 -1647 1 -1650 -1z"/>
</g>
</svg>
